<svg width="41" height="40" viewBox="0 0 41 40" fill="none" xmlns="http://www.w3.org/2000/svg">
<path d="M15.0019 30.2585L24.0242 5.46989C24.1189 5.20979 24.313 4.99796 24.5638 4.88098C24.8147 4.76401 25.1017 4.75148 25.3618 4.84614L38.8878 9.76918C39.1479 9.86386 39.3597 10.058 39.4766 10.3088C39.5936 10.5596 39.6062 10.8467 39.5115 11.1068L30.4892 35.8954C30.4423 36.0241 30.3705 36.1424 30.2779 36.2435C30.1854 36.3445 30.0738 36.4263 29.9496 36.4843C29.8254 36.5422 29.691 36.5751 29.5541 36.581C29.4171 36.587 29.2804 36.566 29.1516 36.5191L15.6257 31.5961C15.4969 31.5492 15.3786 31.4774 15.2775 31.3848C15.1765 31.2923 15.0947 31.1807 15.0367 31.0565C14.9788 30.9323 14.9459 30.7979 14.94 30.6609C14.934 30.524 14.955 30.3873 15.0019 30.2585Z" fill="#94E671"/>
<path d="M23.2603 7.56898L24.0738 5.33383C24.1142 5.22294 24.176 5.12108 24.2558 5.03409C24.3355 4.94709 24.4316 4.87665 24.5385 4.82679C24.6455 4.77694 24.7612 4.74864 24.8791 4.74352C24.997 4.7384 25.1148 4.75656 25.2256 4.79695L39.024 9.81883C39.1349 9.85917 39.2368 9.92096 39.3238 10.0007C39.4109 10.0804 39.4813 10.1765 39.5312 10.2835C39.5811 10.3905 39.6094 10.5062 39.6145 10.6241C39.6197 10.742 39.6015 10.8598 39.5611 10.9707L38.7476 13.2059C38.788 13.095 38.8062 12.9773 38.801 12.8594C38.7959 12.7414 38.7676 12.6257 38.7177 12.5187C38.6678 12.4117 38.5974 12.3157 38.5103 12.2359C38.4233 12.1562 38.3214 12.0944 38.2105 12.0541L24.4121 7.03187C24.3012 6.99147 24.1835 6.97332 24.0655 6.97845C23.9476 6.98358 23.8319 7.01189 23.7249 7.06177C23.6179 7.11165 23.5218 7.18212 23.4421 7.26915C23.3624 7.35618 23.3006 7.45806 23.2603 7.56898Z" fill="#52CC7B"/>
<path d="M17.8735 27.8793L24.7044 9.11148C25.0018 9.25642 25.3263 9.33725 25.657 9.34875C25.9876 9.36024 26.317 9.30213 26.6238 9.17819C26.9305 9.05425 27.2078 8.86724 27.4377 8.62929C27.6675 8.39133 27.8448 8.10773 27.9581 7.79688L35.2343 10.4453C35.0201 11.0338 35.0485 11.6833 35.3132 12.2509C35.5779 12.8185 36.0572 13.2577 36.6456 13.4719L29.8138 32.2422C29.5224 32.1361 29.2129 32.0885 28.9031 32.102C28.5933 32.1155 28.2892 32.1899 28.0082 32.321C27.7271 32.452 27.4747 32.6372 27.2652 32.8658C27.0557 33.0945 26.8933 33.3621 26.7872 33.6535L19.2941 30.9262C19.4009 30.6329 19.4489 30.3214 19.4353 30.0095C19.4217 29.6976 19.3468 29.3915 19.2149 29.1085C19.083 28.8256 18.8967 28.5714 18.6665 28.3605C18.4363 28.1496 18.1669 27.9861 17.8735 27.8793Z" fill="#3D997A"/>
<path d="M22.6436 20.6307C22.6436 19.7149 22.9151 18.8197 23.4239 18.0583C23.9327 17.2968 24.6559 16.7034 25.5019 16.3529C26.348 16.0025 27.279 15.9108 28.1772 16.0895C29.0754 16.2682 29.9004 16.7092 30.5479 17.3567C31.1955 18.0043 31.6365 18.8294 31.8151 19.7276C31.9937 20.6257 31.902 21.5567 31.5515 22.4028C31.201 23.2489 30.6075 23.972 29.846 24.4807C29.0846 24.9895 28.1893 25.261 27.2736 25.261C26.046 25.2595 24.8691 24.7712 24.0011 23.9032C23.1332 23.0352 22.6449 21.8583 22.6436 20.6307Z" fill="#FFDF40"/>
<path d="M12.001 29.3972V3.01771C12.001 2.88067 12.028 2.74496 12.0804 2.61834C12.1328 2.49172 12.2097 2.37667 12.3066 2.27976C12.4035 2.18285 12.5186 2.10598 12.6452 2.05354C12.7718 2.0011 12.9075 1.97411 13.0446 1.97412H27.4386C27.5756 1.97411 27.7113 2.0011 27.8379 2.05354C27.9646 2.10598 28.0796 2.18285 28.1765 2.27976C28.2734 2.37667 28.3503 2.49172 28.4027 2.61834C28.4552 2.74496 28.4822 2.88067 28.4821 3.01771V29.3972C28.4822 29.5342 28.4552 29.6699 28.4027 29.7965C28.3503 29.9232 28.2734 30.0382 28.1765 30.1351C28.0796 30.232 27.9646 30.3089 27.8379 30.3613C27.7113 30.4138 27.5756 30.4408 27.4386 30.4408H13.0446C12.9075 30.4408 12.7718 30.4138 12.6452 30.3613C12.5186 30.3089 12.4035 30.232 12.3066 30.1351C12.2097 30.0382 12.1328 29.9232 12.0804 29.7965C12.028 29.6699 12.001 29.5342 12.001 29.3972Z" fill="#94E671"/>
<path d="M12.001 5.25123V2.87256C12.001 2.63428 12.0956 2.40576 12.2641 2.23727C12.4326 2.06878 12.6611 1.97412 12.8994 1.97412H27.5835C27.8218 1.97412 28.0503 2.06878 28.2188 2.23727C28.3873 2.40576 28.4819 2.63428 28.4819 2.87256V5.25123C28.4819 5.01295 28.3873 4.78443 28.2188 4.61594C28.0503 4.44745 27.8218 4.35279 27.5835 4.35279H12.8996C12.7816 4.35276 12.6648 4.37598 12.5558 4.42112C12.4467 4.46625 12.3477 4.53243 12.2642 4.61586C12.1808 4.69929 12.1146 4.79834 12.0694 4.90736C12.0242 5.01638 12.001 5.13323 12.001 5.25123Z" fill="#52CC7B"/>
<path d="M13.8857 26.1794V6.20691C14.2148 6.24133 14.5474 6.20623 14.862 6.1039C15.1767 6.00156 15.4663 5.83427 15.7121 5.61286C15.958 5.39145 16.1546 5.12086 16.2892 4.81863C16.4238 4.51639 16.4934 4.18925 16.4935 3.8584H24.2367C24.2367 4.48466 24.4855 5.08528 24.9283 5.52811C25.3711 5.97094 25.9717 6.21973 26.598 6.21973V26.195C25.9717 26.195 25.3711 26.4438 24.9283 26.8867C24.4855 27.3295 24.2367 27.9301 24.2367 28.5564H16.2627C16.2627 27.926 16.0123 27.3214 15.5665 26.8756C15.1207 26.4298 14.5161 26.1794 13.8857 26.1794Z" fill="#3D997A"/>
<path d="M15.6113 16.2074C15.6113 15.2916 15.8829 14.3964 16.3917 13.635C16.9004 12.8735 17.6236 12.28 18.4697 11.9296C19.3157 11.5791 20.2467 11.4875 21.1449 11.6661C22.0431 11.8448 22.8681 12.2858 23.5157 12.9333C24.1632 13.5809 24.6042 14.4059 24.7828 15.3041C24.9615 16.2023 24.8698 17.1333 24.5193 17.9794C24.1689 18.8254 23.5754 19.5486 22.8139 20.0573C22.0525 20.5661 21.1573 20.8376 20.2415 20.8376C19.0139 20.8363 17.837 20.348 16.969 19.4799C16.1009 18.6119 15.6127 17.435 15.6113 16.2074Z" fill="#FFDF40"/>
<path d="M10.5111 35.8636L1.48871 11.0751C1.44184 10.9463 1.4208 10.8095 1.42678 10.6726C1.43276 10.5357 1.46564 10.4013 1.52357 10.2771C1.58149 10.1529 1.6633 10.0413 1.76435 9.94871C1.86539 9.85612 1.98368 9.78435 2.11246 9.73748L15.6384 4.81443C15.7672 4.76755 15.9039 4.74649 16.0409 4.75246C16.1778 4.75842 16.3122 4.7913 16.4364 4.84922C16.5606 4.90713 16.6722 4.98894 16.7648 5.08999C16.8574 5.19103 16.9292 5.30932 16.9761 5.4381L25.9983 30.2267C26.0452 30.3555 26.0663 30.4922 26.0603 30.6292C26.0543 30.7661 26.0214 30.9005 25.9635 31.0247C25.9056 31.1489 25.8238 31.2605 25.7227 31.3531C25.6217 31.4457 25.5034 31.5175 25.3746 31.5644L11.8486 36.4874C11.5885 36.582 11.3015 36.5695 11.0507 36.4525C10.7998 36.3355 10.6057 36.1237 10.5111 35.8636Z" fill="#94E671"/>
<path d="M2.25256 13.1745L1.43904 10.9392C1.39864 10.8284 1.38048 10.7106 1.38561 10.5927C1.39074 10.4747 1.41906 10.359 1.46894 10.252C1.51882 10.1451 1.58928 10.049 1.67631 9.96924C1.76334 9.88951 1.86523 9.82771 1.97615 9.78737L15.7745 4.76519C15.8854 4.7248 16.0032 4.70665 16.1211 4.71179C16.239 4.71692 16.3547 4.74524 16.4617 4.79512C16.5686 4.845 16.6647 4.91546 16.7445 5.00248C16.8242 5.08951 16.886 5.19138 16.9263 5.3023L17.7399 7.53753C17.6996 7.42658 17.6378 7.32466 17.5581 7.2376C17.4784 7.15054 17.3823 7.08004 17.2753 7.03013C17.1684 6.98022 17.0526 6.95188 16.9347 6.94673C16.8167 6.94158 16.6989 6.95972 16.588 7.00011L2.78966 12.0226C2.67874 12.0629 2.57686 12.1247 2.48983 12.2045C2.4028 12.2842 2.33233 12.3803 2.28245 12.4873C2.23257 12.5942 2.20426 12.71 2.19913 12.8279C2.194 12.9458 2.21215 13.0636 2.25256 13.1745Z" fill="#52CC7B"/>
<path d="M11.181 32.1954L4.3501 13.4279C4.67109 13.3477 4.97166 13.201 5.23233 12.9972C5.49299 12.7934 5.70794 12.5372 5.86323 12.245C6.01853 11.9529 6.11071 11.6313 6.1338 11.3013C6.15689 10.9712 6.11038 10.64 5.99728 10.3291L13.2735 7.68066C13.4877 8.26916 13.9269 8.74845 14.4945 9.01313C15.0621 9.2778 15.7116 9.30617 16.3001 9.09199L23.132 27.8624C22.8406 27.9684 22.5729 28.1308 22.3443 28.3403C22.1156 28.5498 21.9305 28.8023 21.7994 29.0834C21.6684 29.3644 21.594 29.6685 21.5805 29.9783C21.5669 30.2881 21.6146 30.5975 21.7206 30.8889L14.2275 33.6162C14.1208 33.3229 13.9573 33.0534 13.7465 32.8233C13.5356 32.5931 13.2815 32.4067 12.9986 32.2748C12.7157 32.1429 12.4096 32.0679 12.0977 32.0543C11.7858 32.0407 11.4744 32.0886 11.181 32.1954Z" fill="#3D997A"/>
<path d="M9.39253 22.2349C9.07931 21.3743 9.02831 20.4402 9.24597 19.5507C9.46363 18.6612 9.94019 17.8562 10.6154 17.2375C11.2905 16.6188 12.134 16.2142 13.0391 16.0749C13.9443 15.9356 14.8704 16.0678 15.7003 16.4548C16.5303 16.8418 17.2269 17.4663 17.702 18.2492C18.177 19.0321 18.4093 19.9383 18.3693 20.8532C18.3294 21.7681 18.019 22.6506 17.4775 23.3891C16.936 24.1277 16.1877 24.689 15.3271 25.0022C14.1731 25.4208 12.9002 25.3645 11.7876 24.8457C10.675 24.3269 9.81369 23.388 9.39253 22.2349Z" fill="#FFDF40"/>
<path d="M30.3507 32.1782V33.9C30.3507 34.079 30.2796 34.2505 30.1531 34.3771C30.0266 34.5036 29.855 34.5746 29.6761 34.5746C29.7647 34.5746 29.8524 34.5921 29.9343 34.626C30.0161 34.6599 30.0905 34.7096 30.1532 34.7723C30.2158 34.8349 30.2655 34.9093 30.2994 34.9911C30.3333 35.073 30.3507 35.1607 30.3507 35.2493V36.9711C30.3507 37.0597 30.3333 37.1475 30.2994 37.2293C30.2655 37.3112 30.2158 37.3856 30.1532 37.4482C30.0905 37.5109 30.0161 37.5606 29.9343 37.5945C29.8524 37.6284 29.7647 37.6458 29.6761 37.6458H14.6693C14.4904 37.6458 14.3188 37.5747 14.1922 37.4482C14.0657 37.3217 13.9946 37.1501 13.9946 36.9711V35.2493C13.9946 35.0704 14.0657 34.8988 14.1922 34.7723C14.3188 34.6457 14.4904 34.5746 14.6693 34.5746C14.4904 34.5746 14.3188 34.5036 14.1923 34.3771C14.0657 34.2506 13.9946 34.079 13.9946 33.9V32.1782C13.9946 31.9992 14.0657 31.8276 14.1923 31.7011C14.3188 31.5746 14.4904 31.5035 14.6693 31.5035H29.6761C29.855 31.5035 30.0266 31.5746 30.1531 31.7011C30.2796 31.8276 30.3507 31.9992 30.3507 32.1782ZM29.6761 28.4324H14.6693C14.4904 28.4324 14.3188 28.5035 14.1923 28.63C14.0657 28.7565 13.9946 28.9281 13.9946 29.107V30.8289C13.9946 31.0078 14.0657 31.1794 14.1923 31.3059C14.3188 31.4324 14.4904 31.5035 14.6693 31.5035H29.6761C29.855 31.5035 30.0266 31.4324 30.1531 31.3059C30.2796 31.1794 30.3507 31.0078 30.3507 30.8289V29.107C30.3507 28.9281 30.2796 28.7565 30.1531 28.63C30.0266 28.5035 29.855 28.4324 29.6761 28.4324ZM30.3507 24.6865V22.9646C30.3507 22.7857 30.2796 22.6141 30.1531 22.4876C30.0266 22.3611 29.855 22.29 29.6761 22.29H14.6693C14.4904 22.29 14.3188 22.3611 14.1923 22.4876C14.0657 22.6141 13.9946 22.7857 13.9946 22.9646V24.6865C13.9946 24.8655 14.0657 25.0371 14.1923 25.1636C14.3188 25.2901 14.4904 25.3612 14.6693 25.3612C14.4904 25.3612 14.3188 25.4323 14.1923 25.5588C14.0657 25.6853 13.9946 25.8569 13.9946 26.0358V27.7579C13.9946 27.9369 14.0657 28.1084 14.1923 28.235C14.3188 28.3615 14.4904 28.4325 14.6693 28.4325H29.6761C29.855 28.4325 30.0266 28.3615 30.1531 28.2349C30.2796 28.1084 30.3507 27.9368 30.3507 27.7579V26.0361C30.3507 25.8571 30.2796 25.6855 30.1531 25.559C30.0266 25.4325 29.855 25.3614 29.6761 25.3614C29.7647 25.3614 29.8525 25.344 29.9343 25.31C30.0162 25.2761 30.0906 25.2264 30.1532 25.1637C30.2159 25.101 30.2656 25.0266 30.2994 24.9448C30.3333 24.8629 30.3508 24.7751 30.3507 24.6865Z" fill="#FFDF40"/>
<path d="M30.3507 35.867V36.9711C30.3507 37.0597 30.3333 37.1474 30.2994 37.2293C30.2655 37.3111 30.2158 37.3855 30.1532 37.4482C30.0905 37.5108 30.0161 37.5605 29.9343 37.5944C29.8524 37.6283 29.7647 37.6458 29.6761 37.6458H14.6693C14.5807 37.6458 14.493 37.6283 14.4111 37.5944C14.3293 37.5605 14.2549 37.5108 14.1922 37.4482C14.1296 37.3855 14.0799 37.3111 14.046 37.2293C14.0121 37.1474 13.9946 37.0597 13.9946 36.9711V35.867C13.9946 36.0459 14.0657 36.2175 14.1922 36.344C14.3188 36.4706 14.4904 36.5416 14.6693 36.5416H29.6761C29.7647 36.5416 29.8524 36.5242 29.9343 36.4903C30.0161 36.4564 30.0905 36.4067 30.1532 36.344C30.2158 36.2814 30.2655 36.207 30.2994 36.1251C30.3333 36.0433 30.3507 35.9556 30.3507 35.867ZM30.3507 32.7959V33.9C30.3507 34.0789 30.2796 34.2505 30.1531 34.377C30.0266 34.5035 29.855 34.5746 29.6761 34.5746H14.6693C14.4904 34.5746 14.3188 34.5035 14.1923 34.377C14.0657 34.2505 13.9946 34.0789 13.9946 33.9V32.7955C13.9946 32.9745 14.0657 33.1461 14.1923 33.2726C14.3188 33.3991 14.4904 33.4702 14.6693 33.4702H29.6761C29.855 33.4702 30.0266 33.3991 30.1531 33.2726C30.2796 33.1461 30.3507 32.9745 30.3507 32.7955V32.7959ZM30.3507 29.7247V30.8288C30.3507 31.0077 30.2796 31.1793 30.1531 31.3058C30.0266 31.4324 29.855 31.5034 29.6761 31.5034H14.6693C14.4904 31.5034 14.3188 31.4324 14.1923 31.3059C14.0657 31.1793 13.9946 31.0078 13.9946 30.8288V29.7244C13.9946 29.9033 14.0657 30.0749 14.1923 30.2014C14.3188 30.3279 14.4904 30.399 14.6693 30.399H29.6761C29.855 30.399 30.0266 30.3279 30.1531 30.2014C30.2796 30.0749 30.3507 29.9033 30.3507 29.7244V29.7247ZM30.3507 26.6535V27.7576C30.3507 27.9365 30.2796 28.1081 30.1531 28.2346C30.0266 28.3612 29.855 28.4322 29.6761 28.4323H14.6693C14.4904 28.4322 14.3188 28.3612 14.1923 28.2346C14.0657 28.1081 13.9946 27.9365 13.9946 27.7576V26.6532C13.9946 26.8321 14.0657 27.0037 14.1923 27.1302C14.3188 27.2567 14.4904 27.3278 14.6693 27.3278H29.6761C29.855 27.3278 30.0266 27.2567 30.1531 27.1302C30.2796 27.0037 30.3507 26.8321 30.3507 26.6532V26.6535ZM30.3507 23.5823V24.6865C30.3507 24.8654 30.2796 25.037 30.1531 25.1635C30.0266 25.2901 29.855 25.3612 29.6761 25.3612H14.6693C14.4904 25.3612 14.3188 25.2901 14.1923 25.1635C14.0657 25.037 13.9946 24.8654 13.9946 24.6865V23.582C13.9946 23.761 14.0657 23.9325 14.1923 24.0591C14.3188 24.1856 14.4904 24.2566 14.6693 24.2566H29.6761C29.855 24.2566 30.0266 24.1856 30.1531 24.0591C30.2796 23.9325 30.3507 23.7609 30.3507 23.582V23.5823Z" fill="#FFBE40"/>
<path d="M37.9838 29.9253C37.9838 31.5274 37.5087 33.0935 36.6186 34.4257C35.7285 35.7578 34.4634 36.7961 32.9832 37.4092C31.5031 38.0223 29.8743 38.1827 28.303 37.8702C26.7316 37.5576 25.2883 36.7861 24.1554 35.6533C23.0225 34.5204 22.251 33.077 21.9384 31.5057C21.6258 29.9343 21.7862 28.3056 22.3993 26.8254C23.0124 25.3452 24.0506 24.0801 25.3827 23.19C26.7148 22.2999 28.281 21.8247 29.8831 21.8247C30.9469 21.8247 32.0003 22.0342 32.9831 22.4413C33.9659 22.8483 34.859 23.445 35.6112 24.1972C36.3634 24.9494 36.9601 25.8424 37.3672 26.8253C37.7743 27.8081 37.9838 28.8615 37.9838 29.9253Z" fill="#FDBF00"/>
<path d="M29.883 38.0257C27.739 38.0191 25.685 37.1627 24.1713 35.6443C22.6576 34.1258 21.8076 32.0693 21.8076 29.9252C21.8076 27.7812 22.6576 25.7246 24.1713 24.2062C25.685 22.6877 27.739 21.8314 29.883 21.8247V38.0257Z" fill="#FF9100"/>
<path d="M29.883 35.7801C28.725 35.7801 27.5929 35.4367 26.63 34.7934C25.6672 34.15 24.9167 33.2355 24.4735 32.1657C24.0304 31.0958 23.9144 29.9185 24.1403 28.7827C24.3663 27.6469 24.9239 26.6036 25.7428 25.7848C26.5616 24.9659 27.6049 24.4083 28.7407 24.1823C29.8765 23.9564 31.0538 24.0724 32.1237 24.5155C33.1936 24.9587 34.108 25.7092 34.7514 26.672C35.3947 27.6349 35.7381 28.7669 35.7381 29.925C35.7364 31.4773 35.119 32.9656 34.0213 34.0633C32.9236 35.161 31.4353 35.7784 29.883 35.7801Z" fill="#FFDF40"/>
<path d="M29.883 35.7801C28.3301 35.7801 26.8408 35.1633 25.7428 34.0652C24.6447 32.9671 24.0278 31.4779 24.0278 29.925C24.0278 28.3721 24.6447 26.8828 25.7428 25.7848C26.8408 24.6867 28.3301 24.0698 29.883 24.0698V35.7801Z" fill="#FFBE40"/>
<path d="M31.8664 30.8503C31.9299 31.2206 31.8743 31.6015 31.7075 31.9382C31.5407 32.2748 31.2713 32.5498 30.9382 32.7236C30.7771 32.8097 30.6064 32.8765 30.4296 32.9225V33.4607C30.4296 33.6057 30.372 33.7448 30.2694 33.8474C30.1669 33.9499 30.0278 34.0075 29.8827 34.0075C29.7377 34.0075 29.5986 33.9499 29.496 33.8474C29.3935 33.7448 29.3359 33.6057 29.3359 33.4607V32.9486C29.1954 32.9189 29.0581 32.8759 28.9258 32.8203C28.4073 32.6015 28.0309 32.1992 27.8931 31.7172C27.8533 31.5778 27.8704 31.4282 27.9409 31.3014C28.0113 31.1746 28.1292 31.081 28.2686 31.0411C28.4081 31.0012 28.5577 31.0184 28.6845 31.0888C28.8113 31.1592 28.9049 31.2771 28.9448 31.4166C28.9911 31.5788 29.1394 31.7232 29.3515 31.8129C29.5228 31.8825 29.7073 31.9139 29.892 31.9048C30.0767 31.8957 30.2572 31.8463 30.4208 31.7601C30.5492 31.6941 30.6538 31.5897 30.72 31.4614C30.7862 31.3331 30.8107 31.1874 30.7901 31.0445C30.7211 30.6617 30.2806 30.3791 29.6117 30.2875C28.8461 30.1828 28.2816 29.7591 28.0631 29.1253C27.9666 28.8398 27.9503 28.5333 28.0161 28.2393C28.0819 27.9452 28.2273 27.6749 28.4363 27.4579C28.6847 27.2085 28.9953 27.0302 29.3359 26.9413V26.4033C29.3359 26.2583 29.3935 26.1192 29.496 26.0166C29.5986 25.9141 29.7377 25.8564 29.8827 25.8564C30.0278 25.8564 30.1669 25.9141 30.2694 26.0166C30.372 26.1192 30.4296 26.2583 30.4296 26.4033V26.9268C30.8848 27.0386 31.2903 27.2975 31.5834 27.6632C31.6703 27.7763 31.7097 27.9188 31.6931 28.0604C31.6766 28.202 31.6053 28.3316 31.4945 28.4215C31.3838 28.5113 31.2424 28.5543 31.1003 28.5414C30.9583 28.5285 30.827 28.4605 30.7343 28.3521C30.6414 28.2342 30.524 28.1378 30.3901 28.0698C30.2563 28.0018 30.1092 27.9638 29.9592 27.9583C29.8248 27.9495 29.6901 27.9682 29.5633 28.0131C29.4364 28.058 29.32 28.1283 29.2211 28.2196C29.1521 28.291 29.1041 28.38 29.0822 28.4768C29.0604 28.5737 29.0655 28.6746 29.0972 28.7687C29.1776 29.0018 29.413 29.1563 29.7602 29.2038C30.9218 29.3628 31.7092 29.9783 31.8664 30.8503Z" fill="#FDBF00"/>
<path d="M15.5063 20.161C15.5424 20.2728 15.5538 20.3911 15.5396 20.5078C15.5253 20.6244 15.4859 20.7366 15.4239 20.8365C15.387 20.8981 15.3626 20.9663 15.3521 21.0374C15.3416 21.1084 15.3452 21.1808 15.3626 21.2505C15.3801 21.3202 15.4111 21.3857 15.4539 21.4434C15.4967 21.5011 15.5504 21.5497 15.612 21.5866C15.6736 21.6236 15.7419 21.648 15.813 21.6585C15.884 21.669 15.9564 21.6654 16.0261 21.648C16.0957 21.6305 16.1613 21.5995 16.219 21.5567C16.2766 21.5139 16.3253 21.4602 16.3622 21.3986C16.5685 21.0588 16.6632 20.6631 16.6333 20.2668L16.9976 20.134C17.0651 20.1094 17.1271 20.0718 17.18 20.0232C17.233 19.9747 17.2759 19.9162 17.3062 19.8512C17.3366 19.7861 17.3538 19.7156 17.3569 19.6439C17.3601 19.5721 17.349 19.5005 17.3245 19.433C17.2999 19.3655 17.2623 19.3035 17.2137 19.2506C17.1652 19.1976 17.1067 19.1547 17.0417 19.1244C16.9766 19.094 16.9061 19.0768 16.8344 19.0737C16.7626 19.0705 16.691 19.0816 16.6235 19.1061L16.2461 19.2436C16.0705 19.0062 15.838 18.817 15.57 18.6932C15.3207 18.5826 15.0459 18.5427 14.7756 18.5778C14.5052 18.6128 14.2496 18.7215 14.0368 18.8919C13.5738 19.2669 13.3836 19.8895 13.5278 20.5565C13.6425 21.0869 13.5577 21.4928 13.3012 21.6425C13.2066 21.6928 13.0986 21.7123 12.9924 21.6983C12.8861 21.6843 12.7869 21.6375 12.7086 21.5643C12.5999 21.4658 12.5141 21.3447 12.4572 21.2094C12.4002 21.0742 12.3735 20.9282 12.3789 20.7816C12.3772 20.7093 12.3913 20.6374 12.4203 20.5711C12.4492 20.5048 12.4923 20.4456 12.5464 20.3976C12.6052 20.3557 12.655 20.3026 12.6931 20.2413C12.7313 20.18 12.7569 20.1118 12.7685 20.0406C12.7801 19.9693 12.7775 19.8965 12.7608 19.8263C12.7442 19.7561 12.7138 19.6899 12.6714 19.6314C12.6291 19.573 12.5756 19.5236 12.514 19.4859C12.4524 19.4483 12.384 19.4232 12.3127 19.4121C12.2414 19.401 12.1686 19.4042 12.0985 19.4214C12.0284 19.4385 11.9624 19.4694 11.9043 19.5122C11.7171 19.6554 11.5644 19.8388 11.4575 20.0489C11.3506 20.259 11.2922 20.4905 11.2867 20.7261C11.2798 20.868 11.2878 21.0101 11.3107 21.1503L10.9922 21.2662C10.9247 21.2908 10.8627 21.3284 10.8097 21.3769C10.7568 21.4255 10.7139 21.4839 10.6836 21.549C10.6532 21.6141 10.636 21.6845 10.6328 21.7563C10.6297 21.828 10.6407 21.8997 10.6653 21.9672C10.6899 22.0347 10.7275 22.0967 10.776 22.1496C10.8245 22.2026 10.883 22.2454 10.9481 22.2758C11.0132 22.3061 11.0836 22.3234 11.1554 22.3265C11.2271 22.3296 11.2988 22.3186 11.3663 22.294L11.7608 22.1504C11.8278 22.2326 11.9012 22.3095 11.9801 22.3803C12.2782 22.6488 12.6648 22.7981 13.0661 22.7996C13.3421 22.7998 13.6133 22.7268 13.8518 22.5879C14.5385 22.1879 14.8171 21.3422 14.5972 20.3256C14.5403 20.0626 14.5861 19.8553 14.7259 19.7419C14.7811 19.698 14.8473 19.67 14.9173 19.6611C14.9873 19.6522 15.0583 19.6627 15.1228 19.6915C15.2153 19.7395 15.297 19.806 15.3629 19.8867C15.4289 19.9674 15.4776 20.0608 15.5063 20.161Z" fill="#FF9100"/>
<path d="M28.0636 29.1253C27.9671 28.8398 27.9508 28.5333 28.0166 28.2393C28.0824 27.9452 28.2277 27.6749 28.4367 27.4579C28.6852 27.2085 28.9958 27.0302 29.3364 26.9413V26.4033C29.3364 26.2583 29.394 26.1192 29.4965 26.0166C29.5991 25.9141 29.7382 25.8564 29.8832 25.8564V27.9589C29.6375 27.959 29.401 28.0522 29.2213 28.2197C29.1523 28.2911 29.1042 28.3801 29.0824 28.4769C29.0605 28.5737 29.0657 28.6747 29.0974 28.7688C29.1777 29.0018 29.4132 29.1564 29.7603 29.2039C29.8021 29.2096 29.8424 29.2172 29.8832 29.2241V30.3386C29.7973 30.318 29.7074 30.3006 29.612 30.2875C28.8465 30.1828 28.2821 29.7591 28.0636 29.1253ZM29.8832 31.9049C29.7015 31.9138 29.5201 31.8823 29.352 31.8129C29.1399 31.7232 28.9916 31.5785 28.9453 31.4166C28.9054 31.2771 28.8118 31.1592 28.685 31.0888C28.5582 31.0184 28.4086 31.0012 28.2691 31.0411C28.1297 31.081 28.0118 31.1746 27.9413 31.3014C27.8709 31.4282 27.8538 31.5778 27.8936 31.7172C28.0314 32.1992 28.4078 32.6013 28.9263 32.8203C29.0586 32.8759 29.1959 32.9189 29.3364 32.9486V33.4607C29.3364 33.6058 29.394 33.7449 29.4965 33.8474C29.5991 33.95 29.7382 34.0076 29.8832 34.0076V31.9049Z" fill="#FF9100"/>
</svg>
