<svg width="40" height="40" viewBox="0 0 40 40" fill="none" xmlns="http://www.w3.org/2000/svg">
<path d="M16.0399 35.7712C23.5391 35.7712 29.6183 29.6919 29.6183 22.1927C29.6183 14.6935 23.5391 8.61426 16.0399 8.61426C8.54071 8.61426 2.46143 14.6935 2.46143 22.1927C2.46143 29.6919 8.54071 35.7712 16.0399 35.7712Z" fill="#B0EF8F"/>
<path d="M16.1934 32.6876L16.0212 32.3942C13.3904 27.9119 6.39949 18.3997 6.32887 18.3042L6.22803 18.1672L8.6098 15.8133L16.1492 21.0779C20.8962 14.918 25.3248 10.687 28.2136 8.21634C31.3736 5.51365 33.4306 4.26942 33.4514 4.25749L33.4982 4.22949H37.5383L37.1524 4.57318C27.2271 13.4136 16.4691 32.2032 16.362 32.392L16.1934 32.6876Z" fill="#009045"/>
</svg>
