<svg width="12" height="12" viewBox="0 0 12 12" fill="none" xmlns="http://www.w3.org/2000/svg">
    <g clip-path="url(#clip0_602_269)">
    <path d="M6 0C2.70445 0 0 2.70445 0 6C0 9.29555 2.70445 12 6 12C9.29555 12 12 9.29555 12 6C12 2.70445 9.29555 0 6 0ZM8.73452 2.7683C8.87182 2.631 9.09441 2.631 9.2317 2.7683C9.369 2.90559 9.369 3.12818 9.2317 3.26548C9.09441 3.40277 8.87182 3.40277 8.73452 3.26548C8.59723 3.12818 8.59723 2.90559 8.73452 2.7683ZM5.64844 1.78125C5.64844 1.58693 5.80568 1.42969 6 1.42969C6.19432 1.42969 6.35156 1.58693 6.35156 1.78125V2.48438C6.35156 2.6787 6.19432 2.83594 6 2.83594C5.80568 2.83594 5.64844 2.6787 5.64844 2.48438V1.78125ZM1.78125 6.35156C1.58693 6.35156 1.42969 6.19432 1.42969 6C1.42969 5.80568 1.58693 5.64844 1.78125 5.64844H2.48438C2.6787 5.64844 2.83594 5.80568 2.83594 6C2.83594 6.19432 2.6787 6.35156 2.48438 6.35156H1.78125ZM3.26548 9.2317C3.12818 9.369 2.90559 9.369 2.7683 9.2317C2.631 9.09441 2.631 8.87182 2.7683 8.73452C2.90559 8.5972 3.12818 8.5972 3.26548 8.73452C3.40277 8.87182 3.40277 9.09441 3.26548 9.2317ZM3.26548 3.26548C3.12818 3.40277 2.90559 3.40277 2.7683 3.26548C2.631 3.12818 2.631 2.90559 2.7683 2.7683C2.90559 2.631 3.12818 2.631 3.26548 2.7683C3.40277 2.90559 3.40277 3.12818 3.26548 3.26548ZM6.35156 10.2188C6.35156 10.4131 6.19432 10.5703 6 10.5703C5.80568 10.5703 5.64844 10.4131 5.64844 10.2188V9.51562C5.64844 9.3213 5.80568 9.16406 6 9.16406C6.19432 9.16406 6.35156 9.3213 6.35156 9.51562V10.2188ZM8.35793 8.35793C8.22061 8.49525 7.99812 8.49525 7.8608 8.35793L5.75142 6.24856C5.68552 6.18265 5.64844 6.09338 5.64844 6V3.89062C5.64844 3.6963 5.80568 3.53906 6 3.53906C6.19432 3.53906 6.35156 3.6963 6.35156 3.89062V5.85443L8.35793 7.8608C8.49527 7.99814 8.49527 8.22061 8.35793 8.35793ZM9.2317 9.2317C9.09441 9.369 8.87182 9.369 8.73452 9.2317C8.59723 9.09441 8.59723 8.87182 8.73452 8.73452C8.87182 8.5972 9.09441 8.5972 9.2317 8.73452C9.36898 8.87182 9.36898 9.09441 9.2317 9.2317ZM10.5703 6C10.5703 6.19432 10.4131 6.35156 10.2188 6.35156H9.51562C9.3213 6.35156 9.16406 6.19432 9.16406 6C9.16406 5.80568 9.3213 5.64844 9.51562 5.64844H10.2188C10.4131 5.64844 10.5703 5.80568 10.5703 6Z" fill="white"/>
    </g>
    <defs>
    <clipPath id="clip0_602_269">
    <rect width="12" height="12" fill="white"/>
    </clipPath>
    </defs>
    </svg>
    