<svg width="20" height="20" viewBox="0 0 20 20" fill="none" xmlns="http://www.w3.org/2000/svg">
    <path d="M10 20C15.5228 20 20 15.5228 20 10C20 4.47715 15.5228 0 10 0C4.47715 0 0 4.47715 0 10C0 15.5228 4.47715 20 10 20Z" fill="#39CD00"/>
    <path d="M16.25 9.77268C16.2411 9.89967 16.2248 10.026 16.2011 10.1511C16.1221 10.63 15.9602 11.0914 15.7227 11.5147C15.6091 11.717 15.0625 12.4852 14.8955 12.6875C13.9716 13.8 12.4239 15.084 9.8375 16.3329C9.78294 16.3593 9.72233 16.3706 9.66193 16.3658C9.60153 16.3609 9.54351 16.34 9.49385 16.3053C9.44419 16.2706 9.40468 16.2233 9.3794 16.1682C9.35412 16.1131 9.34397 16.0523 9.35 15.992L9.48068 14.8181C9.49057 14.7283 9.46441 14.6383 9.40795 14.5678C9.35148 14.4972 9.26933 14.452 9.17954 14.442C8.31913 14.3559 7.48098 14.1169 6.70455 13.7363C4.93182 12.8602 3.75 11.2954 3.75 9.51246C3.75 6.767 6.54773 4.54541 10 4.54541C11.7341 4.54541 13.3023 5.11359 14.4318 6.01473C15.4898 6.86132 16.167 8.01018 16.2398 9.28518C16.2519 9.44738 16.2553 9.61012 16.25 9.77268Z" fill="white"/>
    <path d="M8.27724 10.6124C8.30747 10.642 8.33141 10.6774 8.34762 10.7164C8.36383 10.7555 8.37197 10.7974 8.37156 10.8397C8.37171 10.8817 8.36356 10.9234 8.34758 10.9622C8.3316 11.0011 8.3081 11.0364 8.27843 11.0662C8.24877 11.096 8.21352 11.1196 8.1747 11.1357C8.13588 11.1518 8.09427 11.1601 8.05224 11.1601H6.77383C6.68893 11.1598 6.6076 11.126 6.54757 11.0659C6.48753 11.0059 6.45368 10.9246 6.45338 10.8397V8.42491C6.45309 8.38264 6.4613 8.34075 6.4775 8.30171C6.4937 8.26267 6.51757 8.22728 6.54769 8.19764C6.59242 8.15277 6.64949 8.12222 6.71163 8.10988C6.77376 8.09754 6.83817 8.10396 6.89665 8.12832C6.95513 8.15269 7.00504 8.1939 7.04003 8.24671C7.07502 8.29953 7.09351 8.36156 7.09315 8.42491V10.5192H8.05224C8.09407 10.5189 8.13554 10.527 8.17419 10.543C8.21284 10.559 8.24788 10.5826 8.27724 10.6124Z" fill="#00C200"/>
    <path d="M9.31823 8.3556V10.909C9.31793 10.9752 9.2915 11.0386 9.24468 11.0855C9.19786 11.1323 9.13444 11.1587 9.06823 11.159H8.92505C8.85875 11.159 8.79516 11.1327 8.74827 11.0858C8.70139 11.0389 8.67505 10.9753 8.67505 10.909V8.3556C8.67505 8.2893 8.70139 8.22571 8.74827 8.17882C8.79516 8.13194 8.85875 8.1056 8.92505 8.1056H9.06482C9.0979 8.1053 9.13071 8.11154 9.16136 8.12395C9.19202 8.13637 9.21992 8.15472 9.24347 8.17795C9.26702 8.20118 9.28574 8.22883 9.29857 8.25932C9.3114 8.2898 9.31808 8.32252 9.31823 8.3556Z" fill="#00C200"/>
    <path d="M12.2864 8.42495V10.8261C12.2865 10.9125 12.253 10.9955 12.193 11.0576C12.1329 11.1197 12.0512 11.1561 11.9648 11.159C11.8839 11.1577 11.8065 11.1261 11.7478 11.0704C11.7364 11.0613 11.3069 10.5022 10.9421 10.0318C10.6694 9.68063 10.433 9.37382 10.433 9.37382V10.8386C10.4332 10.9007 10.4153 10.9615 10.3815 11.0135C10.3477 11.0656 10.2995 11.1067 10.2427 11.1318C10.1859 11.1569 10.123 11.1649 10.0618 11.1548C10.0005 11.1447 9.94352 11.1169 9.89778 11.075C9.86479 11.0451 9.83844 11.0086 9.82043 10.9679C9.80242 10.9271 9.79316 10.8831 9.79324 10.8386V8.43859C9.79218 8.35422 9.82354 8.27265 9.88083 8.21071C9.93812 8.14876 10.017 8.11116 10.1012 8.10563C10.1488 8.10486 10.1961 8.11464 10.2395 8.13429C10.2829 8.15394 10.3215 8.18296 10.3523 8.21927C10.366 8.23518 11.0262 9.09427 11.3978 9.58291C11.5455 9.77382 11.6478 9.90791 11.6478 9.90791V8.43063C11.6484 8.34613 11.6822 8.26525 11.742 8.2055C11.8017 8.14574 11.8826 8.11191 11.9671 8.11132C12.0508 8.1113 12.1312 8.14416 12.1909 8.20282C12.2506 8.26148 12.2849 8.34125 12.2864 8.42495Z" fill="#00C200"/>
    <path d="M13.4091 9.951V10.5192H14.367C14.4106 10.5166 14.4543 10.5229 14.4954 10.5378C14.5364 10.5527 14.574 10.5759 14.6058 10.6058C14.6376 10.6358 14.663 10.6719 14.6803 10.712C14.6976 10.7522 14.7065 10.7954 14.7065 10.8391C14.7065 10.8828 14.6976 10.926 14.6803 10.9661C14.663 11.0062 14.6376 11.0424 14.6058 11.0723C14.574 11.1023 14.5364 11.1254 14.4954 11.1403C14.4543 11.1552 14.4106 11.1616 14.367 11.159H13.0852C13.0004 11.1587 12.9192 11.1248 12.8593 11.0647C12.7995 11.0046 12.7659 10.9233 12.7659 10.8385V8.42487C12.7662 8.34027 12.7999 8.25922 12.8597 8.19941C12.9195 8.13959 13.0006 8.10585 13.0852 8.10555H14.3636C14.4072 8.10295 14.4509 8.10929 14.492 8.12419C14.533 8.13909 14.5706 8.16223 14.6024 8.19219C14.6342 8.22215 14.6596 8.2583 14.6769 8.29841C14.6942 8.33852 14.7031 8.38175 14.7031 8.42543C14.7031 8.46912 14.6942 8.51235 14.6769 8.55246C14.6596 8.59257 14.6342 8.62872 14.6024 8.65868C14.5706 8.68864 14.533 8.71178 14.492 8.72668C14.4509 8.74158 14.4072 8.74792 14.3636 8.74532H13.4091V9.3135H14.367C14.4517 9.3135 14.5329 9.34715 14.5928 9.40703C14.6527 9.46691 14.6863 9.54813 14.6863 9.63282C14.6863 9.71751 14.6527 9.79873 14.5928 9.85861C14.5329 9.9185 14.4517 9.95214 14.367 9.95214L13.4091 9.951Z" fill="#00C200"/>
</svg>
    