<svg width="20" height="18" viewBox="0 0 20 18" fill="none" xmlns="http://www.w3.org/2000/svg">
    <path d="M10.0001 17.6155C14.7583 17.6155 18.6157 13.7582 18.6157 8.99997C18.6157 4.24172 14.7583 0.384399 10.0001 0.384399C5.24184 0.384399 1.38452 4.24172 1.38452 8.99997C1.38452 13.7582 5.24184 17.6155 10.0001 17.6155Z" fill="url(#paint0_linear_602_109)"/>
    <path d="M18.6157 8.99997C18.6157 8.99993 18.6157 8.99985 18.6157 8.99981C18.6156 4.24263 14.7599 0.386086 10.0031 0.384439C10.0021 0.384439 10.0011 0.384399 10.0001 0.384399C9.99954 0.384399 9.99903 0.384439 9.99852 0.384439C9.7317 0.384478 9.4679 0.397301 9.20727 0.421066C9.24523 0.424517 9.28295 0.428831 9.3208 0.432791C6.83699 0.786242 4.7775 3.05554 3.97111 6.12358C2.37519 6.85448 1.38452 7.87307 1.38452 8.99997C1.38452 10.1269 2.37519 11.1455 3.97115 11.8764C4.77754 14.9444 6.83703 17.2137 9.32084 17.5672C9.28299 17.5711 9.24527 17.5755 9.20731 17.5789C9.46844 17.6028 9.73276 17.6156 10.0001 17.6156C14.7583 17.6156 18.6156 13.7584 18.6157 9.00016C18.6157 9.00009 18.6157 9.00001 18.6157 8.99997ZM3.72217 7.35742C3.66829 7.73342 3.63244 8.11805 3.61613 8.50977H2.49299C2.69209 8.11707 3.11727 7.71762 3.72217 7.35742ZM2.49299 9.49016H3.61613C3.63244 9.88189 3.66833 10.2665 3.72217 10.6425C3.11727 10.2823 2.69209 9.88287 2.49299 9.49016ZM17.0158 8.50977H16.3841C16.3677 8.11805 16.3319 7.73342 16.278 7.35742C16.5368 7.51154 16.7624 7.67283 16.9518 7.83773C16.9817 8.05918 17.0031 8.2833 17.0158 8.50977ZM16.3841 9.49016H17.0158C17.0031 9.71663 16.9817 9.94075 16.9518 10.1622C16.7624 10.3271 16.5368 10.4884 16.278 10.6426C16.3319 10.2665 16.3677 9.88189 16.3841 9.49016ZM16.6414 6.4353C16.4488 6.32648 16.2447 6.22228 16.029 6.12354C15.715 4.92891 15.211 3.85546 14.566 2.96891C15.5103 3.93185 16.2303 5.11538 16.6414 6.4353ZM11.1046 5.98801C11.1876 6.78797 11.2374 7.63918 11.2511 8.50977H8.74915C8.7628 7.63914 8.8126 6.78797 8.89562 5.98801C9.25903 5.96511 9.6275 5.9533 10.0001 5.9533C10.3727 5.9533 10.7412 5.96511 11.1046 5.98801ZM11.0512 1.51138C12.049 1.79244 12.977 2.47158 13.7344 3.49213C14.2061 4.12769 14.5871 4.86205 14.8696 5.67765C14.0074 5.40099 13.0322 5.19577 11.9828 5.08024C11.7743 3.56373 11.4486 2.31652 11.0512 1.51138ZM11.251 9.49016C11.2374 10.3608 11.1876 11.212 11.1046 12.0119C10.7411 12.0348 10.3727 12.0466 10.0001 12.0466C9.62742 12.0466 9.25895 12.0348 8.89554 12.0119C8.81256 11.212 8.76272 10.3608 8.74907 9.49016H11.251ZM11.9828 12.9197C13.0322 12.8042 14.0074 12.5989 14.8697 12.3223C14.5872 13.1379 14.2062 13.8722 13.7344 14.5078C13.3131 15.0755 12.839 15.5376 12.3294 15.8842C11.9081 16.1708 11.3595 15.7736 11.5015 15.2842C11.6964 14.6131 11.86 13.8131 11.9828 12.9197ZM13.1635 11.7488C12.8163 11.8174 12.4611 11.874 12.0995 11.9191C12.1733 11.1549 12.2188 10.3392 12.2315 9.49016H15.4027C15.3769 10.0624 15.3059 10.6233 15.1902 11.1682C14.585 11.4072 13.9059 11.602 13.1635 11.7488ZM12.2316 8.50977C12.2188 7.66071 12.1733 6.84499 12.0995 6.08087C12.4611 6.12589 12.8163 6.18252 13.1635 6.25114C13.9059 6.39789 14.585 6.59275 15.1902 6.83169C15.306 7.37667 15.377 7.93758 15.4028 8.50977H12.2316ZM9.25084 3.72879C9.40052 3.05777 9.58103 2.47911 9.77287 2.05538C9.86021 1.86248 9.93774 1.72746 10.0001 1.63436C10.0624 1.72746 10.1399 1.86244 10.2273 2.05538C10.4192 2.47911 10.5997 3.05777 10.7493 3.72879C10.8376 4.1244 10.915 4.55024 10.9811 4.99907C10.6591 4.98201 10.3319 4.97291 10.0001 4.97291C9.66829 4.97291 9.34107 4.98201 9.01907 4.99907C9.08519 4.5502 9.1626 4.12436 9.25084 3.72879ZM6.26574 3.49213C7.02319 2.47158 7.95119 1.79244 8.94899 1.51138C8.55162 2.31648 8.22586 3.56373 8.01731 5.08024C6.96789 5.19577 5.99276 5.40103 5.13048 5.67769C5.41303 4.86205 5.79401 4.12773 6.26574 3.49213ZM4.80997 6.83169C5.41527 6.59275 6.09437 6.39789 6.83668 6.25114C7.18389 6.18252 7.53907 6.12589 7.90068 6.08087C7.82691 6.84499 7.78139 7.66075 7.76864 8.50977H4.5975C4.62327 7.93758 4.69417 7.37664 4.80997 6.83169ZM4.59746 9.49016H7.7686C7.78135 10.3392 7.82688 11.1549 7.90064 11.9191C7.53907 11.874 7.18389 11.8174 6.83664 11.7488C6.09433 11.602 5.41523 11.4072 4.80993 11.1682C4.69421 10.6233 4.62327 10.0624 4.59746 9.49016ZM6.26574 14.5078C5.79401 13.8722 5.41303 13.1379 5.13052 12.3223C5.99276 12.5989 6.96793 12.8042 8.01735 12.9197C8.14021 13.8131 8.30374 14.6131 8.49864 15.2843C8.64072 15.7736 8.09205 16.1709 7.67076 15.8842C7.16123 15.5376 6.68711 15.0755 6.26574 14.5078ZM9.01907 13.0009C9.34111 13.018 9.66833 13.0271 10.0001 13.0271C10.3319 13.0271 10.6591 13.018 10.9811 13.0009C10.915 13.4497 10.8376 13.8756 10.7493 14.2712C10.5997 14.9422 10.4192 15.5209 10.2273 15.9446C10.2264 15.9465 10.2255 15.9484 10.2247 15.9504C10.1373 16.1427 9.86292 16.1427 9.7755 15.9504C9.77464 15.9484 9.77378 15.9465 9.77287 15.9446C9.58103 15.5209 9.40048 14.9422 9.25084 14.2712C9.1626 13.8756 9.08519 13.4497 9.01907 13.0009ZM14.5659 15.031C15.211 14.1445 15.715 13.071 16.029 11.8764C16.2447 11.7777 16.4488 11.6735 16.6414 11.5646C16.2303 12.8846 15.5103 14.0681 14.5659 15.031Z" fill="url(#paint1_linear_602_109)"/>
    <path d="M19.2059 16.2408H0.794078C0.355529 16.2408 0 15.8853 0 15.4468V11.4019C0 10.9633 0.355529 10.6078 0.794078 10.6078H19.2059C19.6444 10.6078 20 10.9633 20 11.4019V15.4468C20 15.8853 19.6445 16.2408 19.2059 16.2408Z" fill="url(#paint2_linear_602_109)"/>
    <path d="M19.2059 10.6078H17.6204C18.0589 10.6078 18.4145 10.9633 18.4145 11.4019V15.4468C18.4145 15.8853 18.0589 16.2408 17.6204 16.2408H19.2059C19.6445 16.2408 20 15.8853 20 15.4468V11.4019C20 10.9633 19.6445 10.6078 19.2059 10.6078Z" fill="url(#paint3_linear_602_109)"/>
    <path d="M3.26307 14.6169C3.26307 14.733 3.08891 14.8491 2.88569 14.8491C2.66801 14.8491 2.51318 14.733 2.51318 14.6169V11.4577C2.51318 11.3223 2.66801 11.2303 2.88569 11.2303C3.08891 11.2303 3.26307 11.3223 3.26307 11.4577V12.885C3.35016 12.6962 3.56299 12.5172 3.86299 12.5172C4.30322 12.5172 4.68542 12.9769 4.68542 13.5332V14.6169C4.68542 14.7717 4.49675 14.8491 4.30809 14.8491C4.13393 14.8491 3.93558 14.7717 3.93558 14.6169V13.5332C3.93558 13.3494 3.77593 13.1703 3.58722 13.1703C3.42758 13.1703 3.26307 13.3058 3.26307 13.5332V14.6169Z" fill="#7A6D79"/>
    <path d="M5.8368 14.0316C5.8368 14.1719 5.88515 14.2203 6.03515 14.2203H6.24323C6.46091 14.2203 6.56252 14.3799 6.56252 14.5348C6.56252 14.6944 6.46091 14.8492 6.24323 14.8492H6.03515C5.42076 14.8492 5.08691 14.6025 5.08691 14.0316V11.7723C5.08691 11.6368 5.28531 11.5449 5.45942 11.5449C5.64813 11.5449 5.8368 11.6368 5.8368 11.7723V12.5464H6.38346C6.5044 12.5464 6.56731 12.6819 6.56731 12.8125C6.56731 12.9479 6.5044 13.0785 6.38346 13.0785H5.8368V14.0316Z" fill="#7A6D79"/>
    <path d="M7.59803 14.0316C7.59803 14.1719 7.64638 14.2203 7.79638 14.2203H8.00446C8.22214 14.2203 8.32375 14.3799 8.32375 14.5348C8.32375 14.6944 8.22214 14.8492 8.00446 14.8492H7.79638C7.18199 14.8492 6.84814 14.6025 6.84814 14.0316V11.7723C6.84814 11.6368 7.04654 11.5449 7.22065 11.5449C7.40936 11.5449 7.59803 11.6368 7.59803 11.7723V12.5464H8.14469C8.26563 12.5464 8.32858 12.6819 8.32858 12.8125C8.32858 12.9479 8.26567 13.0785 8.14469 13.0785H7.59803V14.0316Z" fill="#7A6D79"/>
    <path d="M9.32506 12.7736V12.8849C9.43632 12.6962 9.67338 12.5172 9.97816 12.5172C10.4668 12.5172 10.8442 12.9769 10.8442 13.5332V13.8718C10.8442 14.4088 10.4523 14.8975 10.0024 14.8975C9.71691 14.8975 9.46534 14.7088 9.37342 14.5105V15.6667C9.37342 15.7828 9.20408 15.8989 8.99122 15.8989C8.77836 15.8989 8.62354 15.7828 8.62354 15.6667V12.7736C8.62354 12.6382 8.78318 12.5462 8.98154 12.5462C9.17993 12.5463 9.32506 12.6382 9.32506 12.7736ZM10.0943 13.5332C10.0943 13.3494 9.92981 13.1703 9.72659 13.1703C9.55244 13.1703 9.37342 13.3058 9.37342 13.5332V13.9347C9.37342 14.017 9.52338 14.2444 9.73628 14.2444C9.92495 14.2444 10.0943 14.0605 10.0943 13.8718V13.5332Z" fill="#7A6D79"/>
    <path d="M12.2811 14.1816C12.2811 13.8477 11.149 14.0751 11.149 13.2624C11.149 12.9044 11.3716 12.5173 12.0585 12.5173C12.4794 12.5173 12.881 12.6625 12.881 12.8657C12.881 12.9624 12.7842 13.2189 12.6101 13.2189C12.4795 13.2189 12.3295 13.0737 12.0682 13.0737C11.8747 13.0737 11.7925 13.156 11.7925 13.2285C11.7925 13.4995 12.9342 13.3011 12.9342 14.1526C12.9342 14.6073 12.6052 14.8976 12.0005 14.8976C11.4925 14.8976 11.0813 14.6896 11.0813 14.4525C11.0813 14.3364 11.178 14.1235 11.328 14.1235C11.4828 14.1235 11.5941 14.3412 11.9811 14.3412C12.2375 14.3412 12.2811 14.2493 12.2811 14.1816Z" fill="#7A6D79"/>
    <path d="M13.9697 13.18C13.9697 13.3784 13.8004 13.5525 13.602 13.5525C13.3891 13.5525 13.2295 13.3784 13.2295 13.18C13.2295 12.9768 13.3891 12.8075 13.602 12.8075C13.8004 12.8075 13.9697 12.9768 13.9697 13.18ZM13.9697 14.5056C13.9697 14.704 13.8004 14.8781 13.602 14.8781C13.3891 14.8781 13.2295 14.704 13.2295 14.5056C13.2295 14.3024 13.3891 14.1331 13.602 14.1331C13.8004 14.1331 13.9697 14.3024 13.9697 14.5056Z" fill="#7A6D79"/>
    <path d="M16.437 11.3706C16.437 11.3997 16.4322 11.4336 16.4176 11.4626L14.7147 14.9508C14.6808 15.0233 14.5889 15.0717 14.497 15.0717C14.3325 15.0717 14.2261 14.9362 14.2261 14.8153C14.2261 14.7863 14.2357 14.7524 14.2502 14.7234L15.9483 11.2352C15.9871 11.153 16.0645 11.1143 16.1516 11.1143C16.287 11.1143 16.437 11.2159 16.437 11.3706Z" fill="#7A6D79"/>
    <path d="M17.6272 11.3706C17.6272 11.3997 17.6223 11.4336 17.6078 11.4626L15.9049 14.9508C15.871 15.0233 15.7791 15.0717 15.6872 15.0717C15.5227 15.0717 15.4163 14.9362 15.4163 14.8153C15.4163 14.7863 15.4259 14.7524 15.4404 14.7234L17.1385 11.2352C17.1772 11.153 17.2547 11.1143 17.3418 11.1143C17.4772 11.1143 17.6272 11.2159 17.6272 11.3706Z" fill="#7A6D79"/>
    <defs>
    <linearGradient id="paint0_linear_602_109" x1="1.38452" y1="8.99997" x2="18.6157" y2="8.99997" gradientUnits="userSpaceOnUse">
    <stop stop-color="#99E6FC"/>
    <stop offset="0.4296" stop-color="#01D0FB"/>
    <stop offset="0.5256" stop-color="#08C6F7"/>
    <stop offset="0.692" stop-color="#1DA9EB"/>
    <stop offset="0.9074" stop-color="#3F7CD9"/>
    <stop offset="1" stop-color="#4F66D0"/>
    </linearGradient>
    <linearGradient id="paint1_linear_602_109" x1="-5.64697" y1="8.99997" x2="18.2828" y2="8.99997" gradientUnits="userSpaceOnUse">
    <stop stop-color="#99E6FC"/>
    <stop offset="0.4296" stop-color="#01D0FB"/>
    <stop offset="0.5256" stop-color="#08C6F7"/>
    <stop offset="0.692" stop-color="#1DA9EB"/>
    <stop offset="0.9074" stop-color="#3F7CD9"/>
    <stop offset="1" stop-color="#4F66D0"/>
    </linearGradient>
    <linearGradient id="paint2_linear_602_109" x1="0" y1="13.4243" x2="23.1361" y2="13.4243" gradientUnits="userSpaceOnUse">
    <stop stop-color="#F8F6F7"/>
    <stop offset="0.1788" stop-color="#F8F6F7"/>
    <stop offset="1" stop-color="#E7E6F5"/>
    </linearGradient>
    <linearGradient id="paint3_linear_602_109" x1="8.86279" y1="13.4243" x2="17.4514" y2="13.4243" gradientUnits="userSpaceOnUse">
    <stop stop-color="#F8F6F7"/>
    <stop offset="1" stop-color="#D1CEEB"/>
    </linearGradient>
    </defs>
    </svg>
    