<svg width="20" height="20" viewBox="0 0 20 20" fill="none" xmlns="http://www.w3.org/2000/svg">
    <g clip-path="url(#clip0_602_146)">
    <path d="M10 0C4.47734 0 0 4.47734 0 10C0 15.5227 4.47734 20 10 20C15.5227 20 20 15.5227 20 10C20 4.47734 15.5227 0 10 0Z" fill="black"/>
    <path d="M11.0939 9.09507L15.3748 4.1189H14.3603L10.6433 8.43965L7.67443 4.1189H4.25024L8.73968 10.6526L4.25024 15.8709H5.26473L9.19008 11.3081L12.3254 15.8709H15.7496L11.0936 9.09507H11.0939ZM5.63026 4.8826H7.18845L14.3608 15.1419H12.8026L5.63026 4.8826Z" fill="white"/>
    </g>
    <defs>
    <clipPath id="clip0_602_146">
    <rect width="20" height="20" fill="white"/>
    </clipPath>
    </defs>
    </svg>
    